# Blender 4.1.1
# www.blender.org
mtllib Cone.mtl
o Cone
v 0.552629 -0.794994 -0.552628
v 0.754404 -0.963441 -0.754403
v 0.552629 -0.794994 0.552629
v 0.754404 -0.963441 0.754404
v -0.552629 -0.794994 -0.552628
v -0.754404 -0.963441 -0.754403
v -0.552629 -0.794994 0.552629
v -0.754404 -0.963441 0.754404
v 0.754404 -0.794994 0.754404
v -0.754404 -0.794994 0.754404
v 0.754404 -0.794994 -0.754403
v -0.754404 -0.794994 -0.754403
v 0.168209 0.841266 0.168209
v -0.168209 0.841266 0.168209
v 0.168209 0.841266 -0.168209
v -0.168209 0.841266 -0.168209
vn -0.0000 0.2287 -0.9735
vn -0.0000 -0.0000 1.0000
vn -1.0000 -0.0000 -0.0000
vn -0.0000 -1.0000 -0.0000
vn 1.0000 -0.0000 -0.0000
vn -0.0000 -0.0000 -1.0000
vn -0.0000 1.0000 -0.0000
vn 0.9735 0.2287 -0.0000
vn -0.9735 0.2287 -0.0000
vn -0.0000 0.2287 0.9735
vt 0.423948 0.132590
vt 0.867935 0.132590
vt 0.695395 0.770624
vt 0.596488 0.770624
vt 0.986312 0.184608
vt 0.900957 0.184608
vt 0.900957 0.956224
vt 0.986312 0.956224
vt 0.986676 0.184771
vt 0.901321 0.184771
vt 0.901321 0.956387
vt 0.986676 0.956387
vt 0.366114 0.000000
vt 0.000000 0.000000
vt 0.000000 0.366114
vt 0.366114 0.366114
vt 0.986618 0.184775
vt 0.901263 0.184775
vt 0.901263 0.956391
vt 0.986618 0.956391
vt 0.986676 0.184865
vt 0.901321 0.184865
vt 0.901321 0.956482
vt 0.986676 0.956482
vt 0.321279 0.687393
vt 0.044835 0.687393
vt 0.000000 0.732228
vt 0.366114 0.732228
vt 0.321279 0.410949
vt 0.044835 0.410949
vt 0.057075 0.737469
vt 0.000114 0.737469
vt 0.000114 0.794430
vt 0.057075 0.794430
vt 0.867811 0.132590
vt 0.423824 0.132590
vt 0.596364 0.770624
vt 0.695271 0.770624
vt 0.869606 0.132478
vt 0.425619 0.132478
vt 0.598159 0.770511
vt 0.697066 0.770511
vt 0.423948 0.132478
vt 0.867935 0.132478
vt 0.695395 0.770511
vt 0.596488 0.770511
s 1
usemtl Material.001
f 1/1/1 5/2/1 16/3/1 15/4/1
f 4/5/2 9/6/2 10/7/2 8/8/2
f 8/9/3 10/10/3 12/11/3 6/12/3
f 6/13/4 2/14/4 4/15/4 8/16/4
f 2/17/5 11/18/5 9/19/5 4/20/5
f 6/21/6 12/22/6 11/23/6 2/24/6
f 3/25/7 7/26/7 10/27/7 9/28/7
f 1/29/7 3/25/7 9/28/7 11/16/7
f 7/26/7 5/30/7 12/15/7 10/27/7
f 5/30/7 1/29/7 11/16/7 12/15/7
f 15/31/7 16/32/7 14/33/7 13/34/7
f 3/35/8 1/36/8 15/37/8 13/38/8
f 5/39/9 7/40/9 14/41/9 16/42/9
f 7/43/10 3/44/10 13/45/10 14/46/10
